<?xml version="1.0" encoding="utf-8"?>
<svg width="24px" height="24px" viewBox="0 0 24 24" version="1.1" xmlns:xlink="http://www.w3.org/1999/xlink"
  xmlns="http://www.w3.org/2000/svg">
  <defs>
    <path d="M24 0L24 0L24 24L0 24L0 0L24 0Z" id="path_1" />
    <path d="M24 0L24 0L24 24L0 24L0 0L24 0L24 0Z" id="path_2" />
    <clipPath id="clip_1">
      <use xlink:href="#path_1" clip-rule="evenodd" fill-rule="evenodd" />
    </clipPath>
    <clipPath id="clip_2">
      <use xlink:href="#path_2" clip-rule="evenodd" fill-rule="evenodd" />
    </clipPath>
  </defs>
  <g id="menu" clip-path="url(#clip_1)">
    <path d="M24 0L24 0L24 24L0 24L0 0L24 0Z" id="menu" fill="none" stroke="none" />
    <g id="Mask-Group">
      <path d="M24 0L24 0L24 24L0 24L0 0L24 0L24 0Z" id="path_1" fill="none" fill-rule="evenodd" stroke="none" />
      <g clip-path="url(#clip_2)">
        <g id="menu">
          <path d="M24 0L24 0L24 24L0 24L0 0L24 0L24 0Z" id="menu#1" fill="none" stroke="none" />
          <g id="Line" transform="translate(4 11)">
            <path d="M0 1L9.625 1" id="Line" fill="none" fill-rule="evenodd" stroke="#000" stroke-width="2"
              stroke-linecap="round" stroke-linejoin="round" />
          </g>
          <g id="Line#1" transform="translate(4 5)">
            <path d="M0 1L16 1" id="Line" fill="none" fill-rule="evenodd" stroke="#000" stroke-width="2"
              stroke-linecap="round" stroke-linejoin="round" />
          </g>
          <g id="Line#2" transform="translate(4 17)">
            <path d="M0 1L13 1" id="Line" fill="none" fill-rule="evenodd" stroke="#000" stroke-width="2"
              stroke-linecap="round" stroke-linejoin="round" />
          </g>
        </g>
      </g>
    </g>
  </g>
</svg>