<?xml version="1.0" encoding="utf-8"?>
<svg width="43px" height="21px" viewBox="0 0 43 21" version="1.1" xmlns:xlink="http://www.w3.org/1999/xlink" xmlns="http://www.w3.org/2000/svg">
  <g id="tasker">
    <path d="M40 2C41.6571 2 43 3.34292 43 5L43 18C43 19.6571 41.6571 21 40 21L3 21C1.34292 21 0 19.6571 0 18L0 5C0 3.34292 1.34292 2 3 2L40 2Z" id="Rectangle-2-Copy" fill="#E1E6FF" stroke="none" />
    <path d="M40 0C41.6571 0 43 1.34292 43 3L43 16C43 17.6571 41.6571 19 40 19L3 19C1.34292 19 0 17.6571 0 16L0 3C0 1.34292 1.34292 0 3 0L40 0Z" id="Rectangle-2" fill="#536DFE" stroke="none" />
    <g id="Tasker" transform="translate(4 3)">
      <g id="Tasker" fill="#FFFFFF">
        <path d="M4.032 10.44L4.032 3.6L6.504 3.6L6.504 2.4L0.216 2.4L0.216 3.6L2.676 3.6L2.676 10.44L4.032 10.44ZM7.728 10.56C8.952 10.56 9.516 9.648 9.696 8.88L9.696 9.312C9.696 10.152 10.188 10.44 10.812 10.44L11.64 10.44L11.64 9.288L11.268 9.288C11.052 9.288 10.956 9.204 10.956 8.94L10.956 6.744C10.956 5.304 10.14 4.476 8.688 4.476C7.392 4.476 6.48 5.148 6.024 5.772L6.828 6.732C7.164 6.12 7.776 5.664 8.556 5.664C9.36 5.664 9.624 6.06 9.672 6.648L7.716 7.476C6.768 7.848 6.192 8.352 6.192 9.18C6.192 10.02 6.768 10.56 7.728 10.56ZM7.488 8.976C7.488 8.676 7.692 8.472 8.196 8.244L9.696 7.572L9.696 8.196C9.696 8.988 9.096 9.516 8.208 9.516C7.716 9.516 7.488 9.312 7.488 8.976ZM14.892 10.56C16.128 10.56 17.1 9.984 17.1 8.832C17.1 7.992 16.62 7.464 15.312 7.128L14.604 6.948C13.812 6.744 13.5 6.588 13.5 6.168C13.5 5.772 13.848 5.556 14.364 5.556C15.12 5.556 15.744 5.94 16.152 6.588L16.944 5.748C16.584 5.088 15.708 4.488 14.46 4.488C13.116 4.488 12.24 5.148 12.24 6.24C12.24 7.308 13.092 7.716 14.016 7.932L14.796 8.124C15.444 8.28 15.888 8.424 15.888 8.856C15.888 9.276 15.516 9.48 14.94 9.48C13.896 9.48 13.176 8.88 12.852 8.292L12.06 9.132C12.504 10.056 13.644 10.56 14.892 10.56ZM19.512 10.44L19.512 8.568L20.388 7.704L22.092 10.44L23.664 10.44L21.3 6.9L23.664 4.596L22.02 4.596L20.424 6.156L19.464 7.212L19.512 6.084L19.512 2.4L18.168 2.4L18.168 10.44L19.512 10.44ZM26.712 10.56C28.008 10.56 28.8 9.972 29.244 9.3L28.416 8.436C28.2 8.928 27.744 9.456 26.724 9.456C25.8 9.456 25.188 8.892 25.116 7.848L29.292 7.848C29.316 7.728 29.34 7.476 29.34 7.26C29.34 5.64 28.368 4.476 26.616 4.476C24.972 4.476 23.832 5.688 23.832 7.524C23.832 9.348 24.972 10.56 26.712 10.56ZM26.616 5.556C27.504 5.556 28.032 6.06 28.128 6.984L25.128 6.984C25.236 6.036 25.788 5.556 26.616 5.556ZM31.86 10.44L31.86 7.224C31.86 6.252 32.484 5.484 33.156 5.484C33.552 5.484 33.708 5.748 33.708 6.072C33.708 6.408 33.528 6.792 33.336 6.984L34.716 6.984C34.824 6.804 34.98 6.384 34.98 5.82C34.98 4.956 34.44 4.476 33.708 4.476C32.664 4.476 32.076 5.316 31.86 6.252L31.86 4.596L30.516 4.596L30.516 10.44L31.86 10.44Z" />
      </g>
    </g>
  </g>
</svg>